<?xml version="1.0" standalone="no"?>
<!DOCTYPE svg PUBLIC "-//W3C//DTD SVG 20010904//EN"
 "http://www.w3.org/TR/2001/REC-SVG-20010904/DTD/svg10.dtd">
<svg version="1.0" xmlns="http://www.w3.org/2000/svg"
 width="561.000000pt" height="561.000000pt" viewBox="0 0 561.000000 561.000000"
 preserveAspectRatio="xMidYMid meet">
<metadata>
Created by potrace 1.14, written by Peter Selinger 2001-2017
</metadata>
<g transform="translate(0.000000,561.000000) scale(0.100000,-0.100000)"
fill="#000000" stroke="none">
<path d="M3028 5583 c-16 -2 -28 -9 -28 -15 0 -6 -3 -9 -6 -6 -7 7 -55 -39
-76 -72 -18 -31 -30 -73 -33 -120 -2 -19 -3 -35 -4 -35 -1 0 -4 -16 -7 -35 -2
-19 -9 -39 -14 -44 -6 -6 -10 -16 -10 -23 0 -11 -45 -62 -55 -63 -3 0 -6 0 -7
-1 -25 -7 -49 -11 -75 -12 -18 0 -33 -3 -33 -7 0 -4 -10 -6 -22 -5 -13 1 -27
0 -33 -4 -5 -3 -19 -6 -30 -8 -20 -2 -63 -13 -122 -31 -17 -6 -34 -8 -37 -4
-3 3 -6 1 -6 -5 0 -6 -20 -16 -44 -22 -50 -12 -238 -104 -261 -127 -8 -9 -21
-17 -29 -18 -7 -1 -29 -16 -47 -34 -46 -43 -110 -92 -121 -92 -5 0 -7 -4 -4
-9 3 -5 -16 -12 -42 -17 -72 -11 -75 -12 -81 -21 -20 -27 -106 -41 -126 -21
-14 13 -100 -3 -118 -23 -16 -17 -21 -18 -35 -7 -13 11 -14 11 -8 0 7 -11 4
-12 -13 -3 -12 7 -26 9 -31 6 -5 -3 -11 -1 -14 3 -9 15 -127 3 -164 -17 -12
-6 -22 -9 -22 -5 0 4 -8 0 -17 -8 -33 -27 -74 -40 -84 -25 -12 17 -54 13 -71
-6 -9 -10 -19 -18 -22 -18 -17 2 -25 -1 -43 -16 -11 -10 -28 -33 -37 -52 -23
-43 -47 -123 -35 -115 5 3 5 -6 -1 -20 -7 -18 -6 -26 1 -26 8 0 8 -4 0 -13 -6
-8 -7 -17 -3 -21 4 -4 8 -20 8 -34 1 -15 3 -29 4 -32 1 -3 3 -9 4 -15 7 -36
20 -65 29 -65 6 0 8 -3 4 -6 -3 -3 5 -24 19 -45 13 -21 24 -43 24 -49 0 -6 4
-9 8 -6 4 2 19 -16 32 -42 14 -26 29 -52 35 -59 23 -28 31 -40 50 -75 11 -21
23 -38 27 -38 5 0 8 -7 8 -15 0 -9 7 -18 15 -21 8 -4 13 -10 10 -14 -3 -5 0
-14 7 -22 22 -24 57 -76 60 -90 3 -12 7 -19 36 -52 6 -8 12 -19 12 -24 0 -4
10 -19 23 -32 12 -14 21 -27 21 -30 -3 -10 10 -35 28 -54 9 -10 15 -23 12 -28
-3 -4 -1 -8 5 -8 6 0 13 -11 17 -24 3 -14 12 -27 20 -30 8 -3 14 -12 14 -21 0
-8 5 -15 10 -15 6 0 10 -7 10 -15 0 -8 4 -15 8 -15 4 0 16 -15 27 -32 10 -18
21 -35 24 -38 4 -3 17 -22 31 -42 14 -21 28 -38 33 -38 4 0 7 -6 7 -14 0 -8 5
-18 12 -22 7 -5 8 -3 3 7 -5 8 1 5 13 -5 12 -11 22 -24 22 -30 0 -7 9 -18 19
-26 11 -7 18 -17 16 -21 -3 -4 2 -9 10 -13 8 -3 15 -14 15 -25 0 -20 14 -27
70 -33 22 -3 25 -8 28 -51 2 -31 10 -57 22 -70 11 -11 22 -28 25 -38 3 -9 12
-20 20 -23 8 -3 15 -12 15 -21 0 -8 5 -16 10 -16 6 -1 15 -2 21 -3 6 0 17 -10
25 -20 8 -11 14 -16 14 -12 0 5 8 -2 19 -15 10 -13 16 -29 14 -36 -3 -7 0 -13
7 -13 6 0 8 -5 5 -10 -4 -6 -11 -8 -16 -5 -18 12 -9 -10 17 -40 14 -16 37 -45
52 -63 17 -21 29 -29 36 -22 6 6 17 1 32 -15 13 -14 28 -25 35 -25 7 0 8 -7 4
-17 -4 -10 -9 -23 -12 -30 -2 -6 5 -21 16 -32 12 -12 21 -24 21 -27 0 -9 62
-58 77 -60 8 -2 20 -10 27 -20 9 -12 15 -14 20 -6 4 7 14 12 22 12 8 0 12 -4
9 -10 -3 -5 -1 -10 5 -10 7 0 10 -7 6 -15 -3 -8 -1 -15 4 -15 6 0 9 -3 9 -8
-1 -4 0 -10 1 -14 3 -9 4 -13 15 -53 4 -16 12 -36 18 -43 5 -6 6 -12 2 -12 -4
0 -2 -7 5 -15 7 -8 10 -15 6 -15 -4 0 0 -13 9 -29 9 -18 11 -32 5 -36 -5 -3
-7 -12 -3 -20 3 -8 1 -15 -4 -15 -12 0 -14 -38 -2 -45 5 -4 7 -11 4 -16 -4 -5
-1 -9 6 -9 7 0 10 -3 6 -6 -3 -4 6 -30 20 -58 14 -28 28 -46 30 -39 3 9 10 9
29 1 25 -12 26 -14 28 -86 0 -23 6 -46 11 -50 6 -4 24 -34 42 -67 19 -37 42
-65 60 -74 15 -8 31 -20 36 -27 4 -7 13 -19 20 -26 6 -8 14 -20 16 -28 13 -46
27 -80 33 -80 5 0 8 -6 8 -14 0 -8 7 -22 16 -30 10 -10 11 -16 4 -16 -7 0 -10
-6 -7 -14 3 -7 0 -19 -6 -25 -8 -8 -8 -11 1 -11 7 0 12 -7 12 -17 0 -9 3 -13
7 -10 3 4 17 -9 30 -28 13 -19 28 -36 33 -36 6 -1 15 -2 22 -3 7 0 17 -11 24
-23 6 -13 14 -20 19 -15 4 4 5 -3 2 -15 -3 -13 -2 -23 3 -23 11 0 7 -33 -5
-43 -6 -4 -3 -11 8 -18 9 -5 17 -17 17 -24 0 -8 4 -15 9 -15 5 0 14 -13 20
-28 7 -15 23 -40 36 -54 13 -14 21 -28 19 -31 -5 -4 24 -18 46 -22 24 -5 50
-18 50 -26 0 -5 4 -8 8 -6 11 3 71 -61 64 -68 -3 -3 0 -5 7 -5 8 0 11 -6 7
-17 -4 -9 -2 -19 4 -23 6 -4 12 -17 13 -28 1 -12 5 -22 9 -22 4 0 8 -11 8 -25
0 -14 5 -25 12 -25 6 0 9 -2 6 -5 -6 -7 115 -130 136 -138 8 -3 16 -1 18 5 7
21 49 -31 44 -55 -4 -22 16 -51 28 -40 3 3 8 -2 12 -11 3 -9 10 -13 15 -10 5
3 9 0 9 -6 0 -13 30 -46 30 -33 0 4 7 0 15 -11 9 -11 28 -19 49 -20 20 0 43
-8 53 -16 22 -18 85 -42 77 -29 -3 5 -2 9 3 9 14 0 38 -19 39 -30 1 -5 2 -11
4 -12 1 -2 3 -12 5 -23 2 -11 12 -25 22 -33 10 -7 17 -15 16 -17 -10 -17 2
-36 37 -59 22 -14 40 -24 40 -20 0 3 7 -2 16 -11 12 -12 19 -13 30 -4 11 9 20
5 43 -21 22 -25 38 -34 67 -35 45 -3 79 -11 97 -22 14 -9 43 -15 75 -17 12 -1
22 -4 22 -7 0 -7 49 -4 85 6 34 10 45 18 88 64 18 18 40 42 50 52 20 22 22 33
5 23 -7 -4 -6 1 3 12 9 10 15 34 14 52 -1 17 2 32 5 32 4 0 6 14 5 30 -1 17 1
33 5 35 4 3 6 24 4 47 -2 24 -5 55 -5 70 -1 16 -7 28 -12 28 -6 0 -7 3 -4 6 3
4 2 15 -4 26 -6 11 -13 32 -15 46 -3 15 -10 30 -16 33 -6 4 -7 12 -4 18 4 6 2
11 -3 11 -6 0 -10 3 -9 8 3 10 -13 85 -20 97 -4 5 -7 16 -8 23 -2 8 -6 21 -10
30 -4 9 -8 24 -10 32 -4 24 -12 55 -14 58 -2 1 -3 5 -4 10 -1 4 -5 13 -9 20
-5 6 -6 12 -3 12 3 0 -2 19 -10 43 -17 45 -24 73 -27 97 -1 8 -5 17 -9 20 -4
3 -9 19 -12 35 -2 17 -5 30 -6 30 -5 0 -32 174 -34 218 0 9 -3 17 -6 17 -3 0
-6 8 -6 18 -1 39 -14 141 -20 156 -3 9 -1 16 5 16 7 0 8 8 1 25 -7 18 -6 25 2
25 8 0 9 3 1 11 -10 10 -6 59 6 59 4 0 7 9 7 20 0 11 -4 20 -8 20 -4 0 -5 9
-3 20 2 11 -2 20 -8 20 -7 1 -6 5 4 13 9 7 14 17 12 23 -2 7 2 18 10 25 7 8
14 16 15 19 0 3 6 19 12 35 16 41 20 79 10 95 -5 8 -4 22 1 32 5 10 6 18 1 18
-9 0 -8 87 1 157 3 18 0 33 -5 33 -5 0 -6 6 -1 13 9 15 12 57 3 57 -6 0 -6 59
0 70 1 3 3 21 5 40 2 19 4 36 5 38 1 1 4 7 5 12 1 6 3 11 4 13 6 6 5 87 0 87
-3 0 -7 19 -8 43 -1 23 -4 65 -5 92 -1 28 0 55 3 60 3 6 6 13 7 18 1 4 3 9 4
12 1 3 4 14 5 25 1 11 4 22 5 25 1 3 3 8 4 13 1 4 5 13 9 20 5 7 4 12 -2 12
-7 0 -7 8 -1 25 5 14 6 25 2 25 -4 0 -7 12 -8 28 0 15 -4 50 -9 77 -13 81 -7
154 16 197 7 13 6 18 -2 18 -8 0 -8 4 -1 13 11 13 17 70 9 97 -2 8 -11 39 -20
68 -9 30 -16 57 -16 60 1 4 0 9 -1 12 -15 40 -10 166 8 180 4 3 9 14 10 25 2
11 8 22 13 23 5 2 6 8 3 14 -4 6 -3 13 2 17 9 5 29 45 33 63 1 4 15 22 31 40
17 18 30 38 30 45 0 7 5 13 10 13 6 0 9 6 8 13 -2 6 3 11 11 9 9 -2 11 3 7 13
-3 9 1 18 9 21 8 4 12 10 9 15 -3 5 0 9 7 9 7 0 10 3 7 6 -4 3 5 30 18 60 13
30 24 56 24 59 0 3 1 7 1 10 1 3 3 14 4 25 1 11 4 21 5 23 3 3 7 42 12 99 1
27 7 48 11 48 4 0 3 9 -3 20 -8 14 -8 20 0 20 6 0 8 5 4 12 -4 7 -9 28 -11 48
-7 75 -61 140 -115 136 -18 -1 -43 -7 -54 -14 -12 -6 -24 -9 -28 -7 -3 3 -4 2
-1 -1 2 -4 -6 -15 -19 -25 -13 -10 -29 -32 -36 -49 -7 -16 -15 -30 -19 -30 -6
0 -12 -31 -14 -77 -1 -13 -5 -23 -9 -23 -4 0 -8 -11 -8 -25 0 -32 -13 -32 -34
0 -10 16 -22 23 -29 18 -7 -4 -19 -9 -27 -10 -8 -1 -24 -4 -35 -5 -11 -2 -36
-18 -54 -36 -19 -17 -38 -32 -43 -32 -5 0 -6 -4 -3 -10 3 -5 -5 -22 -19 -37
-15 -15 -26 -31 -26 -35 0 -7 -7 -16 -53 -70 -18 -23 -29 -21 -97 19 -14 8
-33 17 -42 20 -10 3 -18 8 -18 12 0 4 -8 8 -17 8 -46 5 -206 46 -248 63 -16 7
-41 15 -55 17 -14 2 -26 8 -28 14 -2 5 -14 9 -27 9 -13 0 -27 5 -30 11 -4 5
-12 8 -18 6 -7 -2 -25 2 -40 10 -16 8 -35 12 -42 9 -7 -2 -33 6 -58 19 -25 12
-48 20 -51 17 -4 -3 -6 0 -6 7 0 7 -4 9 -10 6 -5 -3 -10 -1 -10 5 0 6 -4 8
-10 5 -5 -3 -10 -1 -10 5 0 6 -4 8 -10 5 -5 -3 -10 -1 -10 5 0 6 -4 9 -9 6 -5
-3 -11 1 -15 9 -3 8 -11 15 -18 15 -16 0 -98 90 -98 107 0 7 -4 13 -10 13 -5
0 -10 7 -10 15 0 8 -5 15 -12 15 -6 0 -9 3 -5 6 3 3 0 22 -7 42 -7 21 -13 63
-14 95 0 48 4 62 23 82 13 12 22 25 19 27 -2 3 13 18 34 34 54 42 198 191 200
206 1 7 3 30 6 52 4 35 1 42 -33 75 -21 20 -47 38 -57 39 -10 2 -21 7 -24 12
-3 4 -13 6 -22 5 -20 -4 -61 32 -53 46 4 5 12 6 18 3 7 -4 9 -4 5 0 -3 4 11
31 33 59 21 29 39 60 39 70 0 9 4 17 9 17 8 0 7 46 -3 80 -12 45 -19 60 -27
60 -5 0 -9 7 -9 16 0 8 -4 12 -10 9 -5 -3 -10 -1 -10 5 0 7 -7 10 -15 7 -8 -4
-17 -2 -20 3 -4 6 -9 9 -13 9 -4 -1 -19 -4 -34 -6z"/>
</g>
</svg>
